<?xml version="1.0" encoding="UTF-8"?>
<svg id="katman_1" data-name="katman 1" xmlns="http://www.w3.org/2000/svg" version="1.1" viewBox="0 0 122.5 122.6">
  <defs>
    <style>
      .cls-1 {
        fill: #000;
        stroke-width: 0px;
      }
    </style>
  </defs>
  <path class="cls-1" d="M28.5,35.2v12.7c0,.8-.2,1-1,1-6.8,0-12.4,5.5-12.5,12.3s5.5,12.4,12.3,12.5h6.7c.9,0,1.1-.3,1.1-1.1V27.4c.1-14.4,11.9-26,26.3-25.9,11.7,0,21.9,8,25,19.3.5,2.1.8,4.2,1,6.4,0,.7-.2,1-1,1-3.9,0-7.8,0-11.7,0-.8,0-1-.2-1-1-.2-6.4-5.1-11.6-11.5-12-6.4-.6-12.2,3.9-13.2,10.3-.3,3-.3,5.9-.2,8.9,0,.2.4.5.6.6.3,0,.7,0,1,0h44.4c14.4.2,25.9,12.1,25.7,26.5-.2,13.6-10.8,24.8-24.4,25.6q-2,.1-2-1.9v-10.8c0-.8.2-1.1,1.1-1.1,6.8-.1,12.3-5.8,12.2-12.6-.1-6.8-5.8-12.3-12.6-12.2h-6.4c-.9,0-1.1.3-1.1,1.1v44.6c.1,12.9-9.2,24-22,26-15.2,2.6-29.7-9.3-30.2-24.7q0-1.5,1.5-1.5h11.1c.8,0,1.1.2,1.2,1.1.4,6.5,5.3,11.2,12,11.7,5.8.3,11.4-4.3,12.5-10.4.1-.7.2-1.4.2-2.1v-44.5q0-1.4-1.4-1.4h-21.9q-1.5,0-1.5,1.5v35.6c0,1.4,0,1.4-1.4,1.4h-20.1c-12.9,0-24.2-10.3-25.6-23.1-1.5-12.8,6.7-24.8,19.1-28.2,2.5-.7,5-1,7.6-.8Z"/>
</svg>